<mxfile host="app.diagrams.net" modified="2024-05-28T09:55:43.832Z" agent="Mozilla/5.0 (Macintosh; Intel Mac OS X 10_15_7) AppleWebKit/537.36 (KHTML, like Gecko) Chrome/125.0.0.0 Safari/537.36" version="24.3.1" etag="DJkFI5cQQnYCB1HDL6p4" type="github">
  <diagram name="Page-1" id="VOMV2YvJrSNjyBRfpNPi">
    <mxGraphModel>
      <root>
        <mxCell id="0" />
        <mxCell id="1" parent="0" />
      </root>
    </mxGraphModel>
  </diagram>
</mxfile>
